# xmcd
#
# Track frame offsets: 
#        150
#        14597
#        32238
#        50015
#        70156
#        88905
#        104142
#        121178
#        137839
#        156794
#        178715
#        196545
#        213899
#        236391
#        257155
#        261289
#        264887
#        270358
#        275762
#        281157
#
# Disc length: 3837 seconds
#
# Revision: 1
# Processed by: cddbd v1.5.2PL0 Copyright (c) Steve Scherf et al.
# Submitted via: ExactAudioCopyFreeDBPlugin 1.0
#
DISCID=2c0efb14
DTITLE=Various Artists / 仮面ライダーフォーゼ CD-BOX (Disc 2)
DYEAR=2013
DGENRE=Soundtrack
TTITLE0=土屋アンナ / Switch On! (Rock'n Roll States edit.)
TTITLE1=土屋アンナ / Switch On! (Space Techno States edit.)
TTITLE2=Astronauts / Giant Step (Rock'n Roll States edit.)
TTITLE3=SoutherN / Bounce Back -Hyper Guitar Edition-
TTITLE4=綾小路翔 vs マーティ・フリードマン / SAMURAI STRONG STYLE (Marty Friedman Gui
TTITLE4=tar Edit.)
TTITLE5=土屋アンナ / Switch On! (Instrumental)
TTITLE6=Astronauts / Giant Step (Instrumental)
TTITLE7=Astronauts Feat. SHIINA / ENDLESS PLAY (Instrumental)
TTITLE8=SoutherN / Bounce Back (Instrumental)
TTITLE9=Astronauts / COSMIC MIND (Instrumental)
TTITLE10=everset / Shooting Star (Instrumental)
TTITLE11=everset / Evolvin' Storm (Instrumental)
TTITLE12=仮面ライダーGIRLS / 咲いて (Instrumental)
TTITLE13=綾小路翔 vs マーティ・フリードマン / SAMURAI STRONG STYLE (Instrumental)
TTITLE14=城島ユウキと天高グリークラブ / がんばれ、はやぶさくん (Instrumental)
TTITLE15=城島ユウキと仮面ライダー部バンド / はやぶさメタル (Instrumental)
TTITLE16=JK / Love is Overdrive -ジーンゴッドver.- (Instrumental)
TTITLE17=JK / Love is Overdrive -JK ver.- (Instrumental)
TTITLE18=JK / Love is Overdrive -カプリコーンver.- (Instrumental)
TTITLE19=JK / 親父のブルース (Instrumental)
EXTD=
EXTT0=
EXTT1=
EXTT2=
EXTT3=
EXTT4=
EXTT5=
EXTT6=
EXTT7=
EXTT8=
EXTT9=
EXTT10=
EXTT11=
EXTT12=
EXTT13=
EXTT14=
EXTT15=
EXTT16=
EXTT17=
EXTT18=
EXTT19=
PLAYORDER=
